<svg width="60" height="68" viewBox="0 0 60 68" fill="none" xmlns="http://www.w3.org/2000/svg">
<circle cx="30" cy="38" r="27.5" fill="#FF0000" stroke="white" stroke-width="5"/>
<path d="M20.3203 47.457L26.3359 38.0469V37.6602L20.9219 29.4531C20.7643 29.2096 20.6139 28.9733 20.4707 28.7441C20.3275 28.5007 20.1914 28.2643 20.0625 28.0352C19.8477 27.6484 19.6471 27.2402 19.4609 26.8105C19.2891 26.3809 19.2031 26.0156 19.2031 25.7148C19.2031 25.3281 19.3105 24.9342 19.5254 24.5332C19.7546 24.1322 20.1484 23.7669 20.707 23.4375C21.3516 23.0938 21.9388 22.9219 22.4688 22.9219C23.2852 22.9219 23.9583 23.2513 24.4883 23.9102C25.0326 24.5547 25.5339 25.2565 25.9922 26.0156L29.9883 32.5898H30.6328L34.6289 26.0156C35.1016 25.2565 35.6029 24.5547 36.1328 23.9102C36.6628 23.2513 37.3359 22.9219 38.1523 22.9219C38.4102 22.9219 38.6823 22.972 38.9688 23.0723C39.2695 23.1725 39.5846 23.3086 39.9141 23.4805C40.5156 23.8099 40.931 24.168 41.1602 24.5547C41.3893 24.9271 41.5039 25.2995 41.5039 25.6719C41.5039 25.987 41.4108 26.3594 41.2246 26.7891C41.0384 27.2188 40.8307 27.6341 40.6016 28.0352C40.3438 28.5078 40.043 28.9805 39.6992 29.4531L34.3281 37.6602V38.0469L40.3008 47.457C40.6016 47.9297 40.8594 48.4023 41.0742 48.875C41.3034 49.3333 41.418 49.7917 41.418 50.25C41.418 50.6367 41.3105 51.0234 41.0957 51.4102C40.8952 51.7826 40.5156 52.1406 39.957 52.4844C39.3125 52.8281 38.7253 53 38.1953 53C37.4505 53 36.8346 52.7279 36.3477 52.1836C35.8607 51.6393 35.4023 51.0378 34.9727 50.3789L30.6328 43.332H29.9883L25.6484 50.3789C25.2188 51.0378 24.7604 51.6393 24.2734 52.1836C23.7865 52.7279 23.1849 53 22.4688 53C21.9245 53 21.3516 52.8281 20.75 52.4844C20.1628 52.1406 19.7546 51.7826 19.5254 51.4102C19.3105 51.0234 19.2031 50.6367 19.2031 50.25C19.2031 49.7917 19.3105 49.3333 19.5254 48.875C19.7546 48.4023 20.0195 47.9297 20.3203 47.457Z" fill="white"/>
</svg>
